<?xml version="1.0" encoding="utf-8"?>
<!-- Generator: Adobe Illustrator 24.1.2, SVG Export Plug-In . SVG Version: 6.00 Build 0)  -->
<svg version="1.1" id="Layer_1" xmlns="http://www.w3.org/2000/svg" xmlns:xlink="http://www.w3.org/1999/xlink" x="0px" y="0px"
	 viewBox="0 0 380 61" style="enable-background:new 0 0 380 61;" xml:space="preserve">
<g>
	<g>
		<g>
			<g>
				<path d="M100.01,33.22c-0.97,0.54-3.05,1.13-5.71,1.13c-5.82,0-10.22-3.83-10.22-10.54c0-5.93,4.07-10.87,10.83-10.87
					c2.71,0,4.43,0.64,5.15,1.04l-0.64,2.23c-1.06-0.56-2.65-0.99-4.4-0.99c-5.2,0-8.29,3.41-8.29,8.55c0,4.63,2.82,8.25,8.1,8.25
					c1.72,0,3.48-0.37,4.64-0.98L100.01,33.22z"/>
				<path d="M115.38,26.38c0,5.41-3.8,7.97-7.42,7.97c-4.06,0-7.16-3.1-7.16-7.64c0-4.81,3.21-7.93,7.4-7.93
					C112.55,18.78,115.38,22.08,115.38,26.38z M103.4,26.61c0,3.52,2.12,5.67,4.66,5.67c2.51,0,4.72-2.07,4.72-5.78
					c0-2.59-1.4-5.65-4.65-5.65C104.94,20.85,103.4,23.62,103.4,26.61z"/>
				<path d="M118.15,23.22c0-1.48-0.04-2.82-0.11-4.06h2.21l0.14,2.58h0.07c0.81-1.48,2.14-2.94,4.65-2.94
					c2.01,0,3.51,1.41,4.11,3.21h0.06c0.46-0.88,1.01-1.54,1.58-2.01c0.91-0.77,1.87-1.2,3.32-1.2c1.79,0,4.84,1.22,4.84,6.83v8.37
					h-2.48V25.9c0-3.19-1.19-4.83-3.26-4.83c-1.57,0-2.75,1.22-3.22,2.5c-0.13,0.39-0.24,0.88-0.24,1.36v9.06h-2.47v-8.62
					c0-2.61-1.18-4.29-3.11-4.29c-1.74,0-2.94,1.51-3.4,2.79c-0.14,0.4-0.22,0.88-0.22,1.35v8.78h-2.47V23.22z"/>
				<path d="M142.78,24.05c0-1.76-0.04-3.38-0.11-4.9h2.28l0.15,2.74h0.06c1.06-1.88,2.85-3.11,5.42-3.11c3.56,0,6.31,3.12,6.31,7.5
					c0,5.29-3.26,8.07-6.76,8.07c-1.98,0-3.8-0.86-4.74-2.54h-0.06v8.31h-2.53V24.05z M145.31,27.75c0,0.36,0.04,0.71,0.11,1.05
					c0.45,1.81,2.1,3.39,4.22,3.39c2.86,0,4.67-2.23,4.67-5.77c0-2.92-1.65-5.45-4.54-5.45c-1.9,0-3.7,1.29-4.28,3.54
					c-0.09,0.34-0.18,0.74-0.18,1.08V27.75z"/>
				<path d="M171.39,29.92c0,1.53,0.04,2.87,0.11,4.06h-2.26l-0.13-2.72h-0.07c-0.69,1.35-2.24,3.08-4.97,3.08
					c-2.02,0-5.08-1.06-5.08-6.76v-8.43h2.53v7.91c0,2.99,0.95,4.98,3.4,4.98c1.76,0,3.11-1.25,3.67-2.64
					c0.14-0.39,0.26-0.88,0.26-1.4v-8.85h2.53V29.92z"/>
				<path d="M178.3,14.77v4.38h3.82v2.13h-3.82V29c0,1.82,0.43,3.04,2,3.04c0.73,0,1.25-0.1,1.6-0.23l0.12,2.12
					c-0.51,0.22-1.35,0.42-2.38,0.42c-1.22,0-2.21-0.46-2.82-1.22c-0.72-0.86-1-2.28-1-3.92v-7.93h-2.23v-2.13h2.23v-3.68
					L178.3,14.77z"/>
				<path d="M186.36,27.15c0.06,3.34,2.32,5.03,5.08,5.03c2.02,0,3.19-0.38,4.22-0.83l0.45,1.98c-0.89,0.42-2.5,1.02-4.99,1.02
					c-4.43,0-7.19-3.08-7.19-7.5c0-4.39,2.58-8.07,6.92-8.07c4.93,0,6.09,4.6,6.09,7.12c0,0.56-0.03,0.97-0.1,1.24H186.36z
					 M194.5,25.14c0.02-1.28-0.51-4.39-3.83-4.39c-2.86,0-4.04,2.57-4.27,4.39H194.5z"/>
				<path d="M199.71,24.03c0-1.92-0.03-3.42-0.11-4.88h2.22l0.09,3.11H202c0.69-2.18,2.29-3.47,4.05-3.47c0.29,0,0.5,0.02,0.76,0.09
					v2.58c-0.29-0.07-0.57-0.1-0.96-0.1c-1.85,0-3.13,1.45-3.5,3.57c-0.07,0.37-0.11,0.81-0.11,1.23v7.83h-2.53V24.03z"/>
				<path d="M213.5,30.55c1.23,0.85,2.96,1.51,4.87,1.51c2.65,0,4.2-1.43,4.2-3.52c0-1.92-1.02-3.04-3.9-4.02
					c-3.59-1.22-5.43-2.94-5.43-5.91c0-3.25,2.57-5.67,6.45-5.67c2.15,0,3.7,0.51,4.64,1.08l-0.73,2.24
					c-0.64-0.4-2.05-1.07-3.97-1.07c-2.82,0-3.83,1.73-3.83,3.14c0,1.88,1.2,2.87,4.05,3.87c3.49,1.25,5.29,2.86,5.29,6.13
					c0,3.04-2.07,6.01-6.99,6.01c-1.99,0-4.17-0.65-5.33-1.5L213.5,30.55z"/>
				<path d="M242.84,26.38c0,5.41-3.8,7.97-7.42,7.97c-4.06,0-7.16-3.1-7.16-7.64c0-4.81,3.21-7.93,7.4-7.93
					C240.01,18.78,242.84,22.08,242.84,26.38z M230.86,26.61c0,3.52,2.12,5.67,4.66,5.67c2.51,0,4.72-2.07,4.72-5.78
					c0-2.59-1.4-5.65-4.65-5.65C232.4,20.85,230.86,23.62,230.86,26.61z"/>
				<path d="M245.61,12.02h2.53v21.96h-2.53V12.02z"/>
				<path d="M263.76,29.92c0,1.53,0.04,2.87,0.11,4.06h-2.26l-0.13-2.72h-0.07c-0.69,1.35-2.24,3.08-4.97,3.08
					c-2.02,0-5.08-1.06-5.08-6.76v-8.43h2.53v7.91c0,2.99,0.95,4.98,3.4,4.98c1.76,0,3.11-1.25,3.67-2.64
					c0.14-0.39,0.26-0.88,0.26-1.4v-8.85h2.53V29.92z"/>
				<path d="M270.67,14.77v4.38h3.82v2.13h-3.82V29c0,1.82,0.43,3.04,2,3.04c0.73,0,1.25-0.1,1.6-0.23l0.12,2.12
					c-0.51,0.22-1.35,0.42-2.38,0.42c-1.22,0-2.21-0.46-2.82-1.22c-0.72-0.86-1-2.28-1-3.92v-7.93h-2.23v-2.13h2.23v-3.68
					L270.67,14.77z"/>
				<path d="M279.86,14.84c0,0.91-0.61,1.72-1.64,1.72c-0.95,0-1.56-0.81-1.56-1.72c0-0.92,0.65-1.72,1.61-1.72
					S279.85,13.9,279.86,14.84z M276.99,33.98V19.15h2.53v14.83H276.99z"/>
				<path d="M296.87,26.38c0,5.41-3.8,7.97-7.42,7.97c-4.06,0-7.16-3.1-7.16-7.64c0-4.81,3.21-7.93,7.4-7.93
					C294.04,18.78,296.87,22.08,296.87,26.38z M284.89,26.61c0,3.52,2.12,5.67,4.66,5.67c2.51,0,4.72-2.07,4.72-5.78
					c0-2.59-1.4-5.65-4.65-5.65C286.43,20.85,284.89,23.62,284.89,26.61z"/>
				<path d="M299.64,23.22c0-1.48-0.04-2.82-0.11-4.06h2.26l0.14,2.66H302c0.69-1.46,2.41-3.03,4.9-3.03c1.84,0,5.23,1.13,5.23,6.73
					v8.47h-2.53v-8.22c0-2.61-0.99-4.7-3.52-4.7c-1.84,0-3.23,1.4-3.72,2.89c-0.11,0.32-0.19,0.8-0.19,1.23v8.8h-2.53V23.22z"/>
				<path d="M316.13,31.14c0.82,0.56,2.26,1.15,3.6,1.15c1.98,0,2.82-1.02,2.82-2.22c0-1.36-0.82-2-2.76-2.65
					c-2.65-0.88-3.87-2.4-3.86-4.2c0-2.38,1.8-4.43,4.96-4.43c1.47,0,2.78,0.42,3.59,0.96l-0.62,2.02
					c-0.52-0.35-1.64-0.94-3.08-0.94c-1.54,0-2.39,0.91-2.39,2.08c0,1.31,0.94,1.85,2.85,2.52c2.57,0.9,3.77,2.17,3.78,4.43
					c0,2.51-1.85,4.49-5.35,4.49c-1.64,0-3.08-0.45-4.15-1.09L316.13,31.14z"/>
				<path d="M342.81,24.34h-8.12v7.36h9.05v2.28h-11.59V13.31h11.13v2.28h-8.6v6.46h8.12V24.34z"/>
				<path d="M355.24,33.98L355,32.01h-0.07c-0.79,1.16-2.41,2.34-4.59,2.34c-3.02,0-4.41-2.28-4.41-4.26c0-3.55,2.95-5.64,8.86-5.58
					v-0.26c0-0.94-0.26-3.46-3.36-3.44c-1.39,0-2.88,0.45-3.93,1.22l-0.59-1.84c1.3-0.91,3.06-1.41,4.87-1.41
					c4.58,0,5.53,3.49,5.53,6.33v5.25c0,1.32,0.06,2.57,0.22,3.61H355.24z M354.84,26.45c-3.16-0.09-6.34,0.54-6.34,3.29
					c0,1.72,1.11,2.57,2.49,2.57c2.05,0,3.27-1.38,3.71-2.57c0.09-0.29,0.13-0.59,0.13-0.85V26.45z"/>
				<path d="M360.69,31.14c0.82,0.56,2.26,1.15,3.6,1.15c1.98,0,2.82-1.02,2.82-2.22c0-1.36-0.82-2-2.76-2.65
					c-2.65-0.88-3.87-2.4-3.86-4.2c0-2.38,1.8-4.43,4.96-4.43c1.47,0,2.78,0.42,3.59,0.96l-0.62,2.02
					c-0.52-0.35-1.64-0.94-3.08-0.94c-1.54,0-2.39,0.91-2.39,2.08c0,1.31,0.94,1.85,2.85,2.52c2.57,0.9,3.77,2.17,3.78,4.43
					c0,2.51-1.85,4.49-5.35,4.49c-1.64,0-3.08-0.45-4.15-1.09L360.69,31.14z"/>
				<path d="M375.53,14.77v4.38h3.82v2.13h-3.82V29c0,1.82,0.43,3.04,2,3.04c0.73,0,1.25-0.1,1.6-0.23l0.12,2.12
					c-0.51,0.22-1.35,0.42-2.38,0.42c-1.22,0-2.21-0.46-2.82-1.22c-0.72-0.86-1-2.28-1-3.92v-7.93h-2.23v-2.13h2.23v-3.68
					L375.53,14.77z"/>
			</g>
		</g>
		<g>
			<g>
				<path d="M84.9,44.82c0.64-0.14,1.58-0.24,2.55-0.24c1.39,0,2.35,0.24,3.06,0.83c0.58,0.46,0.92,1.15,0.92,2.02
					c0,1.13-0.73,2.1-1.95,2.54v0.05c1.2,0.29,2.37,1.25,2.37,2.91c0,0.97-0.38,1.74-0.96,2.29c-0.77,0.74-2.03,1.07-3.8,1.07
					c-1,0-1.72-0.07-2.19-0.12V44.82z M86.37,49.55h1.17c1.45,0,2.4-0.83,2.4-1.97c0-1.26-0.88-1.88-2.39-1.88
					c-0.59,0-0.95,0.04-1.17,0.1V49.55z M86.37,55.09c0.27,0.05,0.63,0.07,1.11,0.07c1.53,0,2.83-0.64,2.83-2.26
					c0-1.57-1.32-2.26-2.86-2.27h-1.07V55.09z"/>
				<path d="M100.2,53.93c0,0.88,0.03,1.62,0.07,2.26h-1.31l-0.08-1.21h-0.04c-0.35,0.59-1.17,1.38-2.51,1.38
					c-1.37,0-2.67-0.85-2.67-3.49v-4.96h1.48v4.71c0,1.49,0.42,2.54,1.67,2.54c0.96,0,1.57-0.71,1.8-1.3
					c0.07-0.22,0.12-0.48,0.12-0.76v-5.19h1.48V53.93z"/>
				<path d="M102.34,54.71c0.42,0.26,1.14,0.54,1.85,0.54c1.02,0,1.53-0.52,1.53-1.22c0-0.69-0.39-1.09-1.43-1.55
					c-1.41-0.59-2.1-1.37-2.09-2.35c0-1.34,1.09-2.39,2.76-2.39c0.8,0,1.47,0.22,1.91,0.48l-0.38,1.06
					c-0.32-0.21-0.87-0.45-1.56-0.45c-0.85,0-1.31,0.51-1.31,1.11c0,0.65,0.41,0.95,1.45,1.42c1.32,0.56,2.08,1.29,2.09,2.5
					c0,1.53-1.17,2.48-2.99,2.48c-0.84,0-1.65-0.22-2.17-0.55L102.34,54.71z"/>
				<path d="M110.61,45.64c0,0.51-0.35,0.91-0.94,0.91c-0.52,0-0.89-0.4-0.88-0.91c0-0.52,0.38-0.91,0.91-0.91
					C110.25,44.72,110.6,45.11,110.61,45.64z M108.96,56.19v-8.28h1.48v8.28H108.96z"/>
				<path d="M112.8,50.12c0-0.9-0.03-1.53-0.07-2.21h1.31l0.08,1.25h0.04c0.4-0.74,1.3-1.42,2.55-1.42c1.17,0,2.71,0.73,2.71,3.32
					v5.13h-1.48v-4.94c0-1.23-0.42-2.31-1.73-2.31c-0.88,0-1.59,0.63-1.84,1.48c-0.06,0.19-0.09,0.45-0.09,0.71v5.06h-1.48V50.12z"
					/>
				<path d="M122.65,52.28c0.02,2.19,1.26,2.93,2.64,2.93c0.95,0,1.57-0.18,2.07-0.39l0.26,1.04c-0.52,0.25-1.4,0.49-2.55,0.49
					c-2.44,0-3.85-1.67-3.85-4.17c0-2.56,1.41-4.44,3.66-4.44c2.46,0,3.18,2.19,3.18,3.82c0,0.32-0.02,0.54-0.04,0.72H122.65z
					 M126.61,51.23c0.02-1.16-0.46-2.42-1.87-2.42c-1.37,0-1.97,1.35-2.08,2.42H126.61z"/>
				<path d="M129.6,54.71c0.42,0.26,1.14,0.54,1.85,0.54c1.02,0,1.53-0.52,1.53-1.22c0-0.69-0.39-1.09-1.43-1.55
					c-1.41-0.59-2.1-1.37-2.09-2.35c0-1.34,1.09-2.39,2.76-2.39c0.8,0,1.47,0.22,1.91,0.48l-0.38,1.06
					c-0.32-0.21-0.87-0.45-1.56-0.45c-0.85,0-1.31,0.51-1.31,1.11c0,0.65,0.41,0.95,1.45,1.42c1.32,0.56,2.08,1.29,2.09,2.5
					c0,1.53-1.17,2.48-2.99,2.48c-0.84,0-1.65-0.22-2.17-0.55L129.6,54.71z"/>
				<path d="M135.99,54.71c0.42,0.26,1.14,0.54,1.85,0.54c1.02,0,1.53-0.52,1.53-1.22c0-0.69-0.39-1.09-1.43-1.55
					c-1.41-0.59-2.1-1.37-2.09-2.35c0-1.34,1.09-2.39,2.76-2.39c0.8,0,1.47,0.22,1.91,0.48l-0.38,1.06
					c-0.32-0.21-0.87-0.45-1.56-0.45c-0.85,0-1.31,0.51-1.31,1.11c0,0.65,0.41,0.95,1.45,1.42c1.32,0.56,2.08,1.29,2.09,2.5
					c0,1.53-1.17,2.48-2.99,2.48c-0.84,0-1.65-0.22-2.17-0.55L135.99,54.71z"/>
				<path d="M147.42,45.9h-3.17v-1.24h7.84v1.24h-3.19v10.3h-1.48V45.9z"/>
				<path d="M153.02,52.28c0.02,2.19,1.26,2.93,2.64,2.93c0.95,0,1.57-0.18,2.07-0.39l0.26,1.04c-0.52,0.25-1.4,0.49-2.55,0.49
					c-2.44,0-3.85-1.67-3.85-4.17c0-2.56,1.41-4.44,3.66-4.44c2.46,0,3.18,2.19,3.18,3.82c0,0.32-0.02,0.54-0.04,0.72H153.02z
					 M156.99,51.23c0.02-1.16-0.46-2.42-1.87-2.42c-1.37,0-1.97,1.35-2.08,2.42H156.99z"/>
				<path d="M165.68,55.92c-0.37,0.19-1.15,0.43-2.13,0.43c-2.35,0-3.9-1.63-3.9-4.22c0-2.5,1.62-4.38,4.2-4.38
					c0.77,0,1.49,0.19,1.86,0.39l-0.32,1.13c-0.32-0.16-0.82-0.35-1.55-0.35c-1.76,0-2.69,1.46-2.69,3.16c0,1.92,1.11,3.1,2.67,3.1
					c0.72,0,1.22-0.17,1.62-0.35L165.68,55.92z"/>
				<path d="M167.29,44.13h1.48v4.95h0.04c0.24-0.38,0.58-0.73,0.99-0.96c0.41-0.24,0.89-0.38,1.44-0.38c1.12,0,2.67,0.72,2.67,3.35
					v5.1h-1.48v-4.94c0-1.24-0.43-2.31-1.72-2.31c-0.89,0-1.58,0.61-1.85,1.45c-0.07,0.2-0.09,0.43-0.09,0.69v5.11h-1.48V44.13z"/>
				<path d="M176.24,50.12c0-0.9-0.03-1.53-0.07-2.21h1.31l0.08,1.25h0.04c0.4-0.74,1.3-1.42,2.55-1.42c1.17,0,2.71,0.73,2.71,3.32
					v5.13h-1.48v-4.94c0-1.23-0.42-2.31-1.73-2.31c-0.88,0-1.59,0.63-1.84,1.48c-0.06,0.19-0.09,0.45-0.09,0.71v5.06h-1.48V50.12z"
					/>
				<path d="M192.13,52c0,3.11-1.98,4.37-3.8,4.37c-2.07,0-3.69-1.55-3.69-4.26c0-2.84,1.72-4.36,3.81-4.36
					C190.61,47.74,192.13,49.37,192.13,52z M186.15,52.07c0,1.68,0.82,3.2,2.24,3.2c1.39,0,2.23-1.52,2.23-3.23
					c0-1.36-0.58-3.19-2.22-3.19C186.78,48.85,186.15,50.59,186.15,52.07z"/>
				<path d="M193.95,44.13h1.48v12.06h-1.48V44.13z"/>
				<path d="M204.8,52c0,3.11-1.98,4.37-3.8,4.37c-2.07,0-3.69-1.55-3.69-4.26c0-2.84,1.72-4.36,3.81-4.36
					C203.28,47.74,204.8,49.37,204.8,52z M198.82,52.07c0,1.68,0.82,3.2,2.24,3.2c1.39,0,2.23-1.52,2.23-3.23
					c0-1.36-0.58-3.19-2.22-3.19C199.44,48.85,198.82,50.59,198.82,52.07z"/>
				<path d="M213.32,47.92c-0.04,0.58-0.07,1.27-0.07,2.36v4.75c0,2-0.37,3.05-1.1,3.74c-0.74,0.69-1.81,0.96-2.84,0.96
					c-0.94,0-1.93-0.21-2.55-0.6l0.36-1.12c0.5,0.29,1.28,0.57,2.22,0.57c1.43,0,2.43-0.76,2.43-2.79v-0.9h-0.04
					c-0.41,0.74-1.24,1.28-2.37,1.28c-1.93,0-3.28-1.72-3.28-4.06c0-2.88,1.74-4.36,3.49-4.36c1.3,0,1.99,0.69,2.33,1.32h0.03
					l0.07-1.15H213.32z M211.77,51.05c0-0.24-0.02-0.46-0.08-0.65c-0.24-0.78-0.86-1.5-1.89-1.5c-1.32,0-2.22,1.24-2.22,3.13
					c0,1.77,0.81,3.01,2.21,3.01c0.8,0,1.55-0.47,1.87-1.44c0.08-0.25,0.11-0.53,0.11-0.78V51.05z"/>
				<path d="M216.21,47.92l1.64,4.85c0.19,0.58,0.36,1.19,0.49,1.7h0.04c0.13-0.48,0.31-1.11,0.49-1.72l1.48-4.83h1.55l-2.04,5.72
					c-0.93,2.62-1.63,4.23-2.67,5.24c-0.71,0.67-1.43,0.97-1.78,1.05l-0.42-1.22c0.39-0.15,0.87-0.42,1.31-0.83
					c0.4-0.36,0.84-0.94,1.13-1.59c0.08-0.17,0.11-0.28,0.11-0.38c0-0.09-0.02-0.2-0.09-0.36l-2.83-7.64H216.21z"/>
				<path d="M226.5,54.47c0.6,0.37,1.51,0.66,2.42,0.66c1.47,0,2.33-0.8,2.33-1.96c0-1.07-0.64-1.7-2.04-2.32
					c-1.63-0.66-2.86-1.67-2.86-3.25c0-1.78,1.45-3.1,3.62-3.1c1.06,0,1.88,0.26,2.32,0.52l-0.4,1.19c-0.35-0.21-1.06-0.5-1.99-0.5
					c-1.48,0-2.08,0.91-2.08,1.7c0,1.09,0.69,1.6,2.17,2.26c1.83,0.83,2.73,1.81,2.73,3.38c0,1.84-1.37,3.3-3.89,3.3
					c-1.04,0-2.17-0.31-2.71-0.68L226.5,54.47z"/>
				<path d="M236.25,45.64c0,0.51-0.35,0.91-0.94,0.91c-0.52,0-0.89-0.4-0.88-0.91c0-0.52,0.38-0.91,0.91-0.91
					C235.89,44.72,236.25,45.11,236.25,45.64z M234.6,56.19v-8.28h1.48v8.28H234.6z"/>
				<path d="M238.45,50.12c0-0.9-0.03-1.53-0.07-2.21h1.3l0.08,1.24h0.04c0.44-0.75,1.19-1.41,2.45-1.41c1.04,0,1.86,0.59,2.21,1.54
					h0.04c0.26-0.45,0.58-0.8,0.92-1.04c0.46-0.33,0.97-0.5,1.66-0.5c1.14,0,2.57,0.74,2.57,3.39v5.06h-1.46v-4.83
					c0-1.45-0.47-2.43-1.64-2.43c-0.79,0-1.41,0.58-1.66,1.32c-0.07,0.22-0.11,0.48-0.11,0.75v5.18h-1.46v-5.11
					c0-1.2-0.47-2.15-1.58-2.15c-0.84,0-1.5,0.66-1.73,1.46c-0.07,0.22-0.1,0.48-0.1,0.73v5.07h-1.46V50.12z"/>
				<path d="M251.96,50.58c0-1.12-0.03-1.94-0.07-2.66h1.33l0.08,1.3h0.04c0.57-0.97,1.48-1.47,2.65-1.47
					c1.88,0,3.26,1.64,3.26,4.22c0,3.01-1.7,4.41-3.49,4.41c-1.03,0-1.85-0.48-2.28-1.2h-0.04v4.38h-1.48V50.58z M253.44,52.92
					c0,0.22,0.02,0.44,0.07,0.63c0.27,1.09,1.11,1.65,1.99,1.65c1.48,0,2.25-1.37,2.25-3.19c0-1.67-0.75-3.1-2.21-3.1
					c-0.92,0-1.78,0.73-2.01,1.75c-0.05,0.2-0.08,0.41-0.08,0.62V52.92z"/>
				<path d="M261.06,44.13h1.48v12.06h-1.48V44.13z"/>
				<path d="M266.61,45.64c0,0.51-0.35,0.91-0.94,0.91c-0.52,0-0.89-0.4-0.88-0.91c0-0.52,0.38-0.91,0.91-0.91
					C266.25,44.72,266.61,45.11,266.61,45.64z M264.96,56.19v-8.28h1.48v8.28H264.96z"/>
				<path d="M269,56.19v-7.18h-1.15v-1.1H269v-0.49c0-1.97,1.14-3.47,3.53-3.47c0.77,0,1.61,0.23,2.01,0.5l-0.39,1.11
					c-0.35-0.21-0.96-0.43-1.68-0.43c-1.55,0-1.99,1.06-1.99,2.37v0.41h4.6v8.28h-1.48v-7.18h-3.12v7.18H269z"/>
				<path d="M278.33,52.28c0.02,2.19,1.26,2.93,2.64,2.93c0.95,0,1.57-0.18,2.07-0.39l0.26,1.04c-0.52,0.25-1.4,0.49-2.55,0.49
					c-2.44,0-3.85-1.67-3.85-4.17c0-2.56,1.41-4.44,3.66-4.44c2.46,0,3.18,2.19,3.18,3.82c0,0.32-0.02,0.54-0.04,0.72H278.33z
					 M282.29,51.23c0.02-1.16-0.46-2.42-1.87-2.42c-1.37,0-1.97,1.35-2.08,2.42H282.29z"/>
				<path d="M292.17,44.13v9.97c0,0.68,0.03,1.54,0.07,2.09h-1.31l-0.08-1.31h-0.05c-0.41,0.82-1.31,1.49-2.55,1.49
					c-1.87,0-3.29-1.64-3.29-4.22c-0.01-2.82,1.6-4.4,3.44-4.4c1.1,0,1.89,0.5,2.26,1.17h0.03v-4.78H292.17z M290.69,51.22
					c0-0.19-0.01-0.42-0.05-0.61c-0.19-0.92-0.93-1.7-1.94-1.7c-1.46,0-2.24,1.41-2.24,3.18c0,1.7,0.74,3.1,2.2,3.1
					c0.85,0,1.68-0.54,1.97-1.69c0.05-0.19,0.07-0.39,0.07-0.62V51.22z"/>
			</g>
		</g>
	</g>
	<g>
		<g>
			<g>
				<path d="M28.17,43.78l5.39-7.93c3.37,1.97,7.57,1.22,10.43-0.56c2.73-1.7,3.78-4.19,1.9-6.23c-1.68-1.83-4.25-1.61-9.4-0.55
					c-7.17,1.68-14.72,2.66-18.79-2.79c-3.73-5-1.32-11.18,5.19-14.78c4.59-2.54,10.41-3.32,14.19-2.27l-2.16,6.02
					c-2.06-0.63-4.78-0.26-7.07,1.03c-2.39,1.36-3.09,3.05-1.76,4.64c1.48,1.77,3.71,1.34,8.26,0.41c6.32-1.3,14.11-2.57,19.75,3
					c5.79,5.71,4.64,13.62-3.35,18.77C43.89,46.98,34.03,47.81,28.17,43.78z"/>
			</g>
			<g>
				<path d="M64.81,7.72l-12.32,7.32c2.4,1.89,5.76,2.26,8.36,0.69c1.97-1.19,2.61-2.95,1.79-4.54l3.5-2.1
					c2.2,3.02,1.52,6.6-2.49,9.06c-4.83,2.96-11.5,2.37-15.4-1.33c-3.71-3.52-2.86-7.97,1.64-10.56c4.39-2.52,10.32-2.17,14.37,0.97
					L64.81,7.72z M50.61,12.88l8.16-4.8c-2.15-0.86-4.45-0.83-6.39,0.3C50.39,9.54,49.84,11.23,50.61,12.88z"/>
			</g>
			<g>
				<path d="M59.18,52.18C39.26,65.84,14,60.6,4.26,42.98c-7.85-14.21-0.9-29.59,14.11-37.59c11.07-5.9,23.92-6.77,34.85-2.26
					L44.66,8c-7.28-2.17-15.38-1.32-22,2.31C12.25,16.02,8.1,27.34,14.35,36.99c7.24,11.19,24.23,14.44,36.92,6.13
					c7.99-5.23,11.13-13.28,8.88-20.86l9.31-5.78C76.65,28.16,73.54,42.33,59.18,52.18z"/>
			</g>
		</g>
	</g>
</g>
</svg>
