<?xml version="1.0" encoding="UTF-8" standalone="no"?>
<svg
   xmlns:dc="http://purl.org/dc/elements/1.1/"
   xmlns:cc="http://creativecommons.org/ns#"
   xmlns:rdf="http://www.w3.org/1999/02/22-rdf-syntax-ns#"
   xmlns:svg="http://www.w3.org/2000/svg"
   xmlns="http://www.w3.org/2000/svg"
   viewBox="0 0 359.99866 101.99973"
   height="101.99973"
   width="359.99866"
   xml:space="preserve"
   id="svg2"
   version="1.1"><metadata
     id="metadata8"><rdf:RDF><cc:Work
         rdf:about=""><dc:format>image/svg+xml</dc:format><dc:type
           rdf:resource="http://purl.org/dc/dcmitype/StillImage" /></cc:Work></rdf:RDF></metadata><defs
     id="defs6"><clipPath
       id="clipPath18"
       clipPathUnits="userSpaceOnUse"><path
         id="path16"
         d="M 0,76.5 H 269.999 V 0 H 0 Z" /></clipPath></defs><g
     transform="matrix(1.3333333,0,0,-1.3333333,0,101.99973)"
     id="g10"><g
       id="g12"><g
         clip-path="url(#clipPath18)"
         id="g14"><g
           transform="translate(58.6795,26.2383)"
           id="g20"><path
             id="path22"
             style="fill:#334168;fill-opacity:1;fill-rule:nonzero;stroke:none"
             d="m 0,0 c -1.233,0 -2.222,-0.391 -2.965,-1.173 -0.744,-0.782 -1.187,-1.922 -1.33,-3.42 H 3.998 C 3.976,-3.084 3.612,-1.941 2.908,-1.165 2.203,-0.388 1.233,0 0,0 m 0.71,-15.992 c -2.841,0 -5.063,0.828 -6.666,2.486 -1.602,1.658 -2.403,3.941 -2.403,6.848 0,2.985 0.743,5.33 2.23,7.038 1.487,1.707 3.53,2.56 6.129,2.56 2.412,0 4.317,-0.732 5.716,-2.197 1.399,-1.465 2.098,-3.48 2.098,-6.046 V -7.401 H -4.361 c 0.055,-1.774 0.534,-3.137 1.437,-4.089 0.903,-0.953 2.175,-1.429 3.816,-1.429 1.08,0 2.085,0.102 3.015,0.305 0.931,0.204 1.93,0.543 2.999,1.016 v -3.155 C 5.958,-15.205 5,-15.524 4.031,-15.711 3.062,-15.898 1.955,-15.992 0.71,-15.992" /></g><g
           transform="translate(74.2581,19.9107)"
           id="g24"><path
             id="path26"
             style="fill:#334168;fill-opacity:1;fill-rule:nonzero;stroke:none"
             d="m 0,0 -6.129,8.938 h 4.427 L 2.462,2.544 6.658,8.938 h 4.394 L 4.907,0 11.366,-9.334 H 6.972 l -4.51,6.839 -4.494,-6.839 h -4.394 z" /></g><g
           transform="translate(96.4456,26.0069)"
           id="g28"><path
             id="path30"
             style="fill:#334168;fill-opacity:1;fill-rule:nonzero;stroke:none"
             d="m 0,0 c -1.542,0 -2.668,-0.452 -3.378,-1.354 -0.711,-0.904 -1.066,-2.347 -1.066,-4.329 v -0.578 c 0,-2.225 0.352,-3.836 1.057,-4.833 0.705,-0.996 1.856,-1.495 3.453,-1.495 1.344,0 2.379,0.551 3.106,1.652 0.727,1.102 1.09,2.671 1.09,4.709 0,2.048 -0.361,3.599 -1.082,4.65 C 2.458,-0.526 1.398,0 0,0 m 0.941,-15.761 c -2.313,0 -4.108,0.832 -5.385,2.495 h -0.231 c 0.154,-1.542 0.231,-2.478 0.231,-2.809 v -7.483 h -3.883 v 26.4 h 3.14 C -5.1,2.5 -4.918,1.685 -4.643,0.396 h 0.199 c 1.211,1.851 3.028,2.776 5.452,2.776 2.28,0 4.055,-0.826 5.327,-2.478 1.272,-1.652 1.909,-3.971 1.909,-6.955 0,-2.985 -0.647,-5.315 -1.942,-6.989 -1.294,-1.674 -3.081,-2.511 -5.361,-2.511" /></g><g
           transform="translate(114.1395,13.2198)"
           id="g32"><path
             id="path34"
             style="fill:#334168;fill-opacity:1;fill-rule:nonzero;stroke:none"
             d="m 0,0 c 1.409,0 2.541,0.394 3.395,1.182 0.853,0.787 1.28,1.891 1.28,3.312 V 6.08 L 2.329,5.98 C 0.501,5.915 -0.829,5.609 -1.66,5.064 -2.492,4.519 -2.908,3.685 -2.908,2.561 -2.908,1.746 -2.666,1.115 -2.181,0.669 -1.696,0.223 -0.97,0 0,0 M 5.782,-2.643 5.006,-0.099 H 4.873 C 3.992,-1.211 3.105,-1.969 2.214,-2.371 1.321,-2.772 0.176,-2.974 -1.223,-2.974 c -1.796,0 -3.197,0.485 -4.205,1.454 -1.007,0.969 -1.51,2.341 -1.51,4.114 0,1.884 0.699,3.304 2.097,4.262 1.399,0.958 3.529,1.481 6.394,1.57 L 4.708,8.525 V 9.5 c 0,1.167 -0.272,2.04 -0.817,2.618 -0.546,0.578 -1.391,0.867 -2.537,0.867 -0.936,0 -1.833,-0.137 -2.693,-0.413 -0.858,-0.275 -1.684,-0.6 -2.477,-0.974 l -1.256,2.775 c 0.991,0.518 2.076,0.911 3.255,1.181 1.178,0.27 2.291,0.405 3.337,0.405 2.324,0 4.078,-0.506 5.261,-1.52 1.184,-1.013 1.777,-2.605 1.777,-4.774 V -2.643 Z" /></g><g
           transform="translate(143.4793,10.5767)"
           id="g36"><path
             id="path38"
             style="fill:#334168;fill-opacity:1;fill-rule:nonzero;stroke:none"
             d="m 0,0 h -3.898 v 11.234 c 0,1.41 -0.284,2.462 -0.851,3.156 -0.567,0.693 -1.468,1.04 -2.701,1.04 -1.642,0 -2.842,-0.485 -3.602,-1.453 -0.76,-0.97 -1.139,-2.594 -1.139,-4.874 V 0 h -3.883 v 18.272 h 3.04 l 0.545,-2.396 h 0.198 c 0.551,0.87 1.333,1.542 2.346,2.016 1.013,0.473 2.136,0.71 3.37,0.71 4.384,0 6.575,-2.23 6.575,-6.691 z" /></g><g
           transform="translate(155.3738,13.3853)"
           id="g40"><path
             id="path42"
             style="fill:#334168;fill-opacity:1;fill-rule:nonzero;stroke:none"
             d="m 0,0 c 1.597,0 2.759,0.449 3.485,1.346 0.728,0.898 1.102,2.355 1.124,4.37 v 0.545 c 0,2.302 -0.375,3.938 -1.124,4.907 -0.749,0.969 -1.922,1.454 -3.518,1.454 -1.365,0 -2.418,-0.554 -3.155,-1.661 -0.739,-1.107 -1.108,-2.684 -1.108,-4.733 0,-2.026 0.358,-3.571 1.074,-4.634 C -2.506,0.531 -1.432,0 0,0 m -1.041,-3.139 c -2.279,0 -4.059,0.826 -5.336,2.478 -1.278,1.652 -1.916,3.971 -1.916,6.955 0,2.996 0.647,5.328 1.94,6.997 1.294,1.668 3.087,2.502 5.378,2.502 2.401,0 4.23,-0.886 5.485,-2.659 h 0.198 c -0.187,1.31 -0.28,2.346 -0.28,3.106 v 6.657 H 8.326 V -2.809 H 5.286 L 4.609,-0.413 H 4.428 C 3.183,-2.23 1.36,-3.139 -1.041,-3.139" /></g><g
           transform="translate(172.8689,10.5767)"
           id="g44"><path
             id="path46"
             style="fill:#7791a8;fill-opacity:1;fill-rule:nonzero;stroke:none"
             d="M 0,0 H -3.915 V 24.153 H 9.715 V 20.816 H 0 v -7.55 H 9.104 V 9.913 L 0,9.913 Z" /></g><g
           transform="translate(189.2576,22.6866)"
           id="g48"><path
             id="path50"
             style="fill:#7791a8;fill-opacity:1;fill-rule:nonzero;stroke:none"
             d="m 0,0 c 0,-2.974 0.6,-5.229 1.801,-6.766 1.2,-1.536 2.979,-2.304 5.336,-2.304 2.345,0 4.116,0.76 5.311,2.28 1.196,1.519 1.792,3.783 1.792,6.79 0,2.962 -0.592,5.209 -1.775,6.74 C 11.28,8.271 9.516,9.037 7.17,9.037 4.802,9.037 3.015,8.271 1.809,6.74 0.603,5.209 0,2.962 0,0 m 18.437,0 c 0,-3.932 -0.983,-6.988 -2.949,-9.169 -1.966,-2.181 -4.75,-3.271 -8.351,-3.271 -3.646,0 -6.446,1.082 -8.401,3.246 -1.955,2.164 -2.932,5.239 -2.932,9.227 0,3.987 0.983,7.049 2.949,9.185 1.966,2.137 4.771,3.205 8.417,3.205 3.591,0 6.366,-1.085 8.326,-3.254 C 17.457,6.999 18.437,3.942 18.437,0" /></g><g
           transform="translate(216.1199,23.4956)"
           id="g52"><path
             id="path54"
             style="fill:#7791a8;fill-opacity:1;fill-rule:nonzero;stroke:none"
             d="M 0,0 H 2.742 C 4.582,0 5.915,0.341 6.74,1.024 7.566,1.707 7.979,2.72 7.979,4.064 7.979,5.43 7.533,6.41 6.642,7.005 5.749,7.6 4.405,7.897 2.61,7.897 H 0 Z m 0,-3.271 v -9.648 h -3.948 v 24.153 h 6.823 c 3.116,0 5.424,-0.584 6.922,-1.751 1.498,-1.168 2.247,-2.93 2.247,-5.287 0,-3.007 -1.565,-5.149 -4.692,-6.426 l 6.823,-10.689 H 9.682 l -5.783,9.648 z" /></g><g
           transform="translate(243.3621,31.69)"
           id="g56"><path
             id="path58"
             style="fill:#7791a8;fill-opacity:1;fill-rule:nonzero;stroke:none"
             d="m 0,0 c -2.269,0 -4.053,-0.804 -5.353,-2.412 -1.299,-1.608 -1.949,-3.827 -1.949,-6.658 0,-2.963 0.625,-5.204 1.875,-6.723 1.25,-1.52 3.059,-2.28 5.427,-2.28 1.024,0 2.016,0.101 2.975,0.305 0.958,0.204 1.954,0.465 2.99,0.785 v -3.387 c -1.895,-0.716 -4.043,-1.074 -6.444,-1.074 -3.535,0 -6.25,1.071 -8.144,3.214 -1.895,2.142 -2.842,5.206 -2.842,9.193 0,2.512 0.46,4.709 1.38,6.592 0.919,1.883 2.249,3.326 3.989,4.328 1.741,1.003 3.783,1.504 6.129,1.504 2.467,0 4.747,-0.518 6.84,-1.553 L 5.452,-1.454 C 4.637,-1.068 3.775,-0.729 2.867,-0.437 1.958,-0.146 1.003,0 0,0" /></g><g
           transform="translate(267.4822,10.5767)"
           id="g60"><path
             id="path62"
             style="fill:#7791a8;fill-opacity:1;fill-rule:nonzero;stroke:none"
             d="M 0,0 H -13.662 V 24.153 H 0 V 20.816 H -9.714 V 14.241 H -0.61 V 10.937 H -9.714 V 3.354 l 9.714,0 z" /></g><path
           id="path64"
           style="fill:#ef493d;fill-opacity:1;fill-rule:nonzero;stroke:none"
           d="M 26.037,10.577 H 2.294 v 22.358 h 23.743 z" /><path
           id="path66"
           style="fill:#2b9bce;fill-opacity:1;fill-rule:nonzero;stroke:none"
           d="M 26.037,32.935 H 2.294 v 10.981 h 23.743 z" /><path
           id="path68"
           style="fill:#2c5ba4;fill-opacity:1;fill-rule:nonzero;stroke:none"
           d="M 37.909,32.935 H 26.037 v 10.981 h 11.872 z" /><path
           id="path70"
           style="fill:#334168;fill-opacity:1;fill-rule:nonzero;stroke:none"
           d="M 40.877,53.81 H 29.005 v 10.981 h 11.872 z" /><path
           id="path72"
           style="fill:#334168;fill-opacity:1;fill-rule:nonzero;stroke:none"
           d="M 59.08,62.12 H 47.208 V 73.101 H 59.08 Z" /><path
           id="path74"
           style="fill:#334168;fill-opacity:1;fill-rule:nonzero;stroke:none"
           d="M 55.717,43.917 H 43.845 v 10.981 h 11.872 z" /><path
           id="path76"
           style="fill:#2c5ba4;fill-opacity:1;fill-rule:nonzero;stroke:none"
           d="M 26.037,43.917 H 2.294 v 10.981 h 23.743 z" /><path
           id="path78"
           style="fill:#334168;fill-opacity:1;fill-rule:nonzero;stroke:none"
           d="M 37.909,10.577 H 26.037 v 22.358 h 11.872 z" /></g></g></g></svg>